{
  "sha1": "fbchnv978xbc71pm331z705nffq3zdw",
  "insertion": {
    "when": "2024-06-01T09:03:05.896Z",
    "user": "plantuml@gmail.com"
  },
  "humhash": "nenici-862-bitome"
}
@startuml
set separator none
state Running {
  [*] --> A1
  state A1 {
     [*] --> A2
  }
  A1 --> A2
  --
  [*] --> B
} 

@enduml
