{
  "sha1": "mvd6jzld0avlrho87xg7hlt6chmt5tm",
  "insertion": {
    "when": "2024-06-03T18:59:35.756Z",
    "user": "plantuml@gmail.com"
  }
}
@startuml

state Somp {
  state entry1 <<expansionInput>>
  state entry2 <<expansionInput>>
  state sin
  entry1 --> sin
  entry2 -> sin
  sin -> sin2
  state exitA <<expansionOutput>>
  sin2 --> exitA <<expansionOutput>>
}

[*] --> entry1
exitA --> Foo
Foo1 -> entry2

@enduml
