{
  "sha1": "l3w5phhm1vvtzkaph7hpxlibpnba3ie",
  "insertion": {
    "when": "2024-06-04T17:28:39.488Z",
    "user": "plantuml@gmail.com"
  },
  "humhash": "cakoco-181-fodebi"
}
@startuml
!pragma svek_trace on
set separator none
state Somp {
  state entry1 <<inputPin>>
  state entry2 <<inputPin>>
  state sin
  entry1 --> sin
  entry2 -> sin
  sin -> sin2
  state exitA <<outputPin>>
  sin2 --> exitA
}

[*] --> entry1
exitA --> Foo
Foo1 -> entry2

@enduml
