{
  "sha1": "g8aq0yv3pvldah2b0sjg7tzfzbpr82o",
  "insertion": {
    "when": "2024-05-30T20:48:21.282Z",
    "user": "plantuml@gmail.com"
  },
  "humhash": "rinisi-79-peko570"
}
@startuml
set separator none
left to right direction
state Somp {
  state entry1 <<expansionInput>>
  state entry2 <<expansionInput>>
  state sin
  entry1 --> sin
  entry2 -> sin
  sin -> sin2
  state exitA <<expansionOutput>>
  sin2 --> exitA
}

[*] --> entry1
exitA --> Foo
Foo1 -> entry2

@enduml
