{
  "sha1": "38hqm66y1ued3b3j4641wc8ugtg0x9u",
  "insertion": {
    "when": "2024-05-30T20:48:20.210Z",
    "user": "plantuml@gmail.com"
  },
  "humhash": "kiniro-32-mama877"
}
@startuml
set separator .
[*] --> ma
state "midgeAdult" as ma <<Midge>> {
  	state Foo1 <<Weavil>>
    [*] --> Foo1
} 
[*] --> ma.Foo1  
@enduml
