{
  "sha1": "rk9s690e7p3u41po4283tymp03j7rir",
  "insertion": {
    "when": "2024-06-04T17:28:43.934Z",
    "user": "plantuml@gmail.com"
  },
  "humhash": "besevu-619-mobuno"
}
@startuml
skinparam topurl http://www.google.com

Dog --|> Mammal

class Mamal [[/search]]
'url of Dog is [[http://www.yahoo.com{This is Dog}]]

class Dog [[http://www.yahoo.com{This is Dog}]] {
NemesisCat
}
Dog o-- Cat

Cat --|> Mammal
@enduml
