{
  "sha1": "ivsx9nvy8wr13zpyf0qvykowdgijinl",
  "insertion": {
    "when": "2024-06-03T18:59:31.262Z",
    "user": "plantuml@gmail.com"
  },
  "humhash": "vitimu-236-razinu"
}
@startuml
set separator none
state A {
        state Aentry1 <<entrypoint>>
        state Aexit1 <<exitpoint>>
        state foo
        Aentry1 --> Aexit1
}
state B {
        state Bentry1 <<entrypoint>>
        state Bexit1 <<exitpoint>>
        Bentry1 --> Bexit1
}
[*] --> Aentry1
Aexit1 --> Bentry1
Bexit1 --> [*]
@enduml
