{
  "sha1": "b3jfjwaqypvphnnsih1kfhjjqd1x4yv",
  "insertion": {
    "when": "2024-06-01T09:03:04.189Z",
    "user": "plantuml@gmail.com"
  },
  "humhash": "vapaki-989-mexeju"
}
@startuml
 skinparam stateBackgroundColor<<Acacia>> green
  skinparam stateBackgroundColor<<Midge>> red
  skinparam stateBackgroundColor<<Weavil>> orange

  [*] --> Foo1
  state Foo1 <<Acacia>>
  state Foo2 #blue
  Foo1 --> Foo2
  
@enduml
