{
  "sha1": "dxd4p71dsvcecjj684tkqfw5zki4sik",
  "insertion": {
    "when": "2024-05-30T20:48:21.878Z",
    "user": "plantuml@gmail.com"
  },
  "humhash": "lupeku-342-gixame"
}
@startuml
class BaseClass

namespace Revelate.Legacy.Base.Biz {

  class Person
  Person : guid OID
  Person : string FirstName
  Person : string LastName
  Person : boolean IsBirthday()

  .BaseClass <|-- Revelate.Legacy.Base.Biz.BaseClass
  Revelate.Legacy.Base.Biz.BaseClass <|-- Person

  .BaseClass <|-- Person

  class Meeting

  Meeting "1" o-- "n" Person : Relation1

  .BaseClass <|- Meeting

}

namespace Revelate.Sungard.Biz {
  class Person
  Revelate.Legacy.Base.Biz.Person  <|- Person
  Person : CustomAttribute

  Revelate.Legacy.Base.Biz.Meeting "1" o-- "n" Person : Relation2

}


@enduml
