{
  "sha1": "sqmtju6q1t7aeu9eqkutwpr8t4yw53w",
  "insertion": {
    "when": "2024-11-19T12:22:17.327Z",
    "url": "https://github.com/plantuml/plantuml/issues/1945",
    "user": "plantuml@gmail.com"
  }
}
@startuml
<style>
document {
  BackgroundColor lightBlue
}
arrow {
  FontColor Blue
  FontSize 14
  FontStyle bold
  cardinality {
  	FontColor red
	FontSize 10
	FontStyle italic
  }
}
class {
  BackgroundColor yellow
  generic {
  	BackgroundColor purple
  }
  qualified {
  	BackgroundColor green
  	FontColor ivory
  }
}
</style>

    interface Map<K,V>
    class HashMap<Long,Customer>

    Map <|.. HashMap
    Shop [customerId: long] ---> "customer%n()1" Customer : foo1
    HashMap [id] -r-> "value" Customer : foo2
@enduml
