{
  "sha1": "sb5ej8p23r9914pmrqmj4rivt1zd83x",
  "insertion": {
    "when": "2024-06-03T18:59:34.969Z",
    "user": "plantuml@gmail.com"
  },
  "humhash": "sadace-996-kinere"
}
@startuml

left to right direction
state Somp {
  state entry1 <<expansionInput>>
  state entry2 <<expansionInput>>
  state sin
  entry1 --> sin
  entry2 -> sin
  sin -> sin2
  state exitA <<expansionOutput>>
  sin2 --> exitA
}

[*] --> Somp.entry1
Somp.exitA --> Foo
Foo1 -> Somp.entry2

@enduml
