{
  "sha1": "544ljzza1c1alrsghbvct69b91xld3e",
  "insertion": {
    "when": "2024-05-30T20:48:20.650Z",
    "user": "plantuml@gmail.com"
  },
  "humhash": "nabuco-040-gofule"
}
@startuml

set separator none

[*] --> NotShooting

state Configuring {
  [*] --> NewValueSelection
  NewValueSelection --> NewValuePreview : EvNewValue
  NewValuePreview --> NewValueSelection : EvNewValueRejected
  NewValuePreview --> NewValueSelection : EvNewValueSaved
}

state "This is not Shooting " as NotShooting begin
  [*] --> Idle
  Idle --> Configuring : EvConfig
  Configuring --> Idle : EvConfig
end state

@enduml
