{
  "sha1": "p2lfckcahio0tckuthc6dndxc4pe9hx",
  "insertion": {
    "when": "2024-06-04T17:28:40.628Z",
    "user": "plantuml@gmail.com"
  }
}
@startuml
class javax.sound.sampled.AudioFormat
class javax.sound.sampled.AudioFormat.Encoding
net.sourceforge.mazix.components.sound.AudioManager ..> javax.sound.sampled.AudioFormat.Encoding
net.sourceforge.mazix.components.sound.AudioTest ..> javax.sound.sampled.AudioFormat
@enduml
