{
  "sha1": "k64w374h1kao2l3zn9nx7a7pjhkak9e",
  "insertion": {
    "when": "2024-06-03T18:59:32.656Z",
    "user": "plantuml@gmail.com"
  },
  "humhash": "nelafa-733-gaduku"
}
@startuml
state "Sans activite" as Chomeur
[*] --> Active
Chomeur -> Active : retrouver une activite
Active -> Chomeur : perte de toute activite
Chomeur --> Retraite : age retraite
Active -> Active : changement d activite
state Active {
[*] --> ===B1===
===B1=== --> Salarie
===B1=== --> Independant
===B1=== --> Etudiant
}
@enduml
