{
  "sha1": "39l0nr54gphpvh0hxb2fhwdnw6ihnj8",
  "insertion": {
    "when": "2024-05-30T20:48:20.218Z",
    "user": "plantuml@gmail.com"
  },
  "humhash": "tedeba-19-lisi250"
}
@startuml

class Graphic{
	Render()
}
class Image
class Watermarked
class TransparentBackground
abstract class GraphicDecorator

GraphicDecorator ..> Graphic : <<implement>>
Watermarked ..> GraphicDecorator : <<implement>>
TransparentBackground ..> GraphicDecorator : <<implement>>
Image ..> Graphic : <<implement>>
Graphic -* GraphicDecorator
@enduml
